# File created by Blade
# Date/Time:  Mon Sep 22 17:46:01 2014
# Frame Rate: 120.000 fps
#------------------------------------------------------
:FULLY-SPECIFIED
:DEGREES
3541
root 4.795855 38.352895 4.234096 24.644922 -50.419595 -40.864586
RightUpLeg 8.800981 -39.570116 -23.299710
RightLeg 60.299867 -0.000000 -0.000000
RightFoot -4.467701 -34.780631 18.478860
RightToeBase -5.172136 -0.000000 0.000000
LeftUpLeg 10.722852 19.432173 18.491482
LeftLeg 3.814693 -0.000000 -0.000000
LeftFoot -22.545691 37.316777 -18.590429
LeftToeBase 3.595135 -0.000000 -0.000000
Spine 16.096955 -1.260562 -5.227032
RightShoulder -0.888333 -30.501175 -2.199586
RightArm 17.005453 -12.471866 68.742822
RightForeArm 4.629850 -0.000000 77.577650
RightHand -2.003901 -0.000000 -17.919801
RightHandThumb1 -24.326973 -0.000000 -32.862282
LeftShoulder -15.930423 30.975298 12.858661
LeftArm 47.481348 -48.997483 -71.993022
LeftForeArm 27.523458 -0.000000 97.352027
LeftHand -37.450655 0.000000 31.814357
LeftHandThumb1 -26.253704 0.000000 33.147579
Head 27.686448 32.092564 32.167182
3542
root 4.807199 38.350949 4.218035 24.695080 -50.503013 -40.874910
RightUpLeg 8.764268 -39.503661 -23.347536
RightLeg 60.307618 -0.000000 -0.000000
RightFoot -4.512096 -34.819191 18.520784
RightToeBase -5.041797 -0.000000 0.000000
LeftUpLeg 10.683926 19.454481 18.452517
LeftLeg 3.818891 -0.000000 -0.000000
LeftFoot -22.583523 37.327409 -18.651973
LeftToeBase 3.635002 -0.000000 -0.000000
Spine 16.121336 -1.234614 -5.365125
RightShoulder -0.906490 -30.474085 -2.170852
RightArm 17.115477 -12.556647 68.750407
RightForeArm 4.612417 0.000000 77.609521
RightHand -2.045383 -0.000000 -17.892334
RightHandThumb1 -24.326973 -0.000000 -32.862282
LeftShoulder -15.952040 30.903811 12.909362
LeftArm 47.469011 -49.201346 -72.079578
LeftForeArm 27.374454 -0.000000 97.371142
LeftHand -37.300152 -0.000000 32.129502
LeftHandThumb1 -26.253704 0.000000 33.147579
Head 27.681251 32.147649 32.281909
3543
root 4.823364 38.347584 4.200749 24.737788 -50.602868 -40.857134
RightUpLeg 8.675819 -39.404684 -23.374236
RightLeg 60.336587 -0.000000 -0.000000
RightFoot -4.479710 -34.832310 18.474223
RightToeBase -4.957908 -0.000000 0.000000
LeftUpLeg 10.628870 19.470881 18.373402
LeftLeg 3.811258 -0.000000 -0.000000
LeftFoot -22.656699 37.354726 -18.760035
LeftToeBase 3.774549 -0.000000 -0.000000
Spine 16.145508 -1.216896 -5.540284
RightShoulder -0.867741 -30.399575 -2.159409
RightArm 17.133943 -12.622546 68.790216
RightForeArm 4.586564 0.000000 77.683040
RightHand -2.022755 0.000000 -17.810615
RightHandThumb1 -24.326973 -0.000000 -32.862282
LeftShoulder -15.982309 30.837115 12.956549
LeftArm 47.456271 -49.449200 -72.201785
LeftForeArm 27.346790 -0.000000 97.432670
LeftHand -37.110728 -0.000000 32.012784
LeftHandThumb1 -26.253704 0.000000 33.147579
Head 27.647836 32.213106 32.395252
3544
root 4.838451 38.343843 4.186009 24.749919 -50.693646 -40.798839
RightUpLeg 8.583750 -39.304171 -23.411943
RightLeg 60.370159 -0.000000 -0.000000
RightFoot -4.406134 -34.869531 18.399293
RightToeBase -5.045432 -0.000000 0.000000
LeftUpLeg 10.585792 19.461955 18.271178
LeftLeg 3.770894 -0.000000 -0.000000
LeftFoot -22.737628 37.374515 -18.885881
LeftToeBase 3.894493 -0.000000 -0.000000
Spine 16.160617 -1.218548 -5.747859
RightShoulder -0.866827 -30.351934 -2.119140
RightArm 17.181960 -12.693074 68.804689
RightForeArm 4.468136 0.000000 77.752984
RightHand -2.101594 -0.000000 -17.835550
RightHandThumb1 -24.326973 -0.000000 -32.862282
LeftShoulder -16.036268 30.829964 12.969275
LeftArm 47.601956 -49.701787 -72.425602
LeftForeArm 27.291159 -0.000000 97.521797
LeftHand -37.015558 0.000000 31.897491
LeftHandThumb1 -26.253704 0.000000 33.147579
Head 27.570118 32.204974 32.385753
3545
root 4.851424 38.339517 4.172248 24.729694 -50.737829 -40.717809
RightUpLeg 8.543414 -39.237552 -23.462631
RightLeg 60.395964 -0.000000 -0.000000
RightFoot -4.369279 -34.871433 18.374558
RightToeBase -4.959348 -0.000000 0.000000
LeftUpLeg 10.551267 19.446542 18.185028
LeftLeg 3.716041 -0.000000 -0.000000
LeftFoot -22.756786 37.370728 -18.934449
LeftToeBase 3.964438 -0.000000 -0.000000
Spine 16.192726 -1.268713 -5.938595
RightShoulder -0.877993 -30.317255 -2.094960
RightArm 17.225593 -12.763681 68.837407
RightForeArm 4.356521 0.000000 77.831028
RightHand -2.139320 -0.000000 -17.831423
RightHandThumb1 -24.326973 -0.000000 -32.862282
LeftShoulder -16.047026 30.811854 12.981863
LeftArm 47.655605 -49.989533 -72.599342
LeftForeArm 27.449678 -0.000000 97.665557
LeftHand -37.047740 -0.000000 31.452314
LeftHandThumb1 -26.253704 0.000000 33.147579
Head 27.535865 32.279893 32.490860
3546
root 4.864937 38.335006 4.157613 24.695536 -50.765129 -40.618980
RightUpLeg 8.512346 -39.181720 -23.507413
RightLeg 60.413062 -0.000000 -0.000000
RightFoot -4.390710 -34.862191 18.412631
RightToeBase -4.935602 -0.000000 0.000000
LeftUpLeg 10.508524 19.467711 18.104653
LeftLeg 3.662970 -0.000000 -0.000000
LeftFoot -22.817734 37.293826 -19.037389
LeftToeBase 4.085054 -0.000000 -0.000000
Spine 16.231410 -1.358149 -6.124012
RightShoulder -0.870840 -30.292443 -2.104017
RightArm 17.257262 -12.818140 68.905585
RightForeArm 4.243659 -0.000000 77.917213
RightHand -2.173403 -0.000000 -17.814907
RightHandThumb1 -24.326973 -0.000000 -32.862282
LeftShoulder -16.090287 30.802623 12.941270
LeftArm 47.660750 -50.233532 -72.647180
LeftForeArm 27.375855 -0.000000 97.823433
LeftHand -37.112840 0.000000 31.449576
LeftHandThumb1 -26.253704 0.000000 33.147579
Head 27.530932 32.413633 32.606389
3547
root 4.878028 38.331566 4.143359 24.645450 -50.787135 -40.520831
RightUpLeg 8.495724 -39.109759 -23.539493
RightLeg 60.423991 -0.000000 -0.000000
RightFoot -4.425324 -34.869148 18.460355
RightToeBase -4.889161 -0.000000 0.000000
LeftUpLeg 10.485027 19.543226 18.045519
LeftLeg 3.608498 -0.000000 -0.000000
LeftFoot -22.814656 37.189594 -19.054124
LeftToeBase 4.190881 -0.000000 -0.000000
Spine 16.289384 -1.429135 -6.308532
RightShoulder -0.917523 -30.278375 -2.086878
RightArm 17.310365 -12.884109 68.951857
RightForeArm 4.150836 -0.000000 77.978875
RightHand -2.155232 0.000000 -17.757728
RightHandThumb1 -24.326973 -0.000000 -32.862282
LeftShoulder -16.113293 30.800357 12.920394
LeftArm 47.648735 -50.445892 -72.681271
LeftForeArm 27.255801 0.000000 97.999937
LeftHand -36.897459 -0.000000 31.541916
LeftHandThumb1 -26.253704 0.000000 33.147579
Head 27.484455 32.489283 32.642851
3548
root 4.894414 38.327791 4.128579 24.593100 -50.790507 -40.402587
RightUpLeg 8.449274 -39.030154 -23.532283
RightLeg 60.443389 -0.000000 -0.000000
RightFoot -4.447578 -34.860667 18.513610
RightToeBase -4.514364 -0.000000 0.000000
LeftUpLeg 10.426613 19.624743 17.971774
LeftLeg 3.564486 -0.000000 -0.000000
LeftFoot -22.890843 37.055049 -19.185314
LeftToeBase 4.342031 -0.000000 -0.000000
Spine 16.345248 -1.523445 -6.487703
RightShoulder -0.964750 -30.267847 -2.083275
RightArm 17.352817 -12.946632 69.007416
RightForeArm 4.061950 0.000000 78.046134
RightHand -2.154169 -0.000000 -17.716949
RightHandThumb1 -24.326973 -0.000000 -32.862282
LeftShoulder -16.175774 30.829604 12.846257
LeftArm 47.840651 -50.626700 -72.846854
LeftForeArm 27.338558 0.000000 98.168012
LeftHand -36.951811 -0.000000 31.513203
LeftHandThumb1 -26.253704 0.000000 33.147579
Head 27.405817 32.566110 32.613397
3549
root 4.908485 38.326497 4.113658 24.540053 -50.775518 -40.295280
RightUpLeg 8.423401 -38.945856 -23.493527
RightLeg 60.422449 -0.000000 -0.000000
RightFoot -4.401816 -34.881566 18.438727
RightToeBase -4.917032 -0.000000 0.000000
LeftUpLeg 10.365029 19.657320 17.917256
LeftLeg 3.545664 -0.000000 -0.000000
LeftFoot -22.894786 36.939136 -19.230003
LeftToeBase 4.464388 -0.000000 -0.000000
Spine 16.410973 -1.633904 -6.649662
RightShoulder -0.980291 -30.233857 -2.087309
RightArm 17.313382 -12.971827 69.106476
RightForeArm 3.952691 -0.000000 78.135898
RightHand -2.130135 -0.000000 -17.654656
RightHandThumb1 -24.326973 -0.000000 -32.862282
LeftShoulder -16.238046 30.815793 12.790393
LeftArm 47.929934 -50.767024 -72.961407
LeftForeArm 27.287510 0.000000 98.358561
LeftHand -36.886077 -0.000000 31.412878
LeftHandThumb1 -26.253704 0.000000 33.147579
Head 27.335711 32.656473 32.585365
3550
root 4.922572 38.326803 4.096370 24.476728 -50.722137 -40.167342
RightUpLeg 8.394576 -38.862041 -23.415640
RightLeg 60.416974 -0.000000 -0.000000
RightFoot -4.415600 -34.835653 18.514106
RightToeBase -4.986144 -0.000000 0.000000
LeftUpLeg 10.244221 19.639860 17.857279
LeftLeg 3.596518 -0.000000 -0.000000
LeftFoot -22.956121 36.808006 -19.314248
LeftToeBase 4.604423 -0.000000 -0.000000
Spine 16.474032 -1.777493 -6.818896
RightShoulder -1.013411 -30.219527 -2.078971
RightArm 17.287171 -13.012011 69.188791
RightForeArm 3.814032 -0.000000 78.206914
RightHand -2.189059 0.000000 -17.726285
RightHandThumb1 -24.326973 -0.000000 -32.862282
LeftShoulder -16.307926 30.840855 12.758716
LeftArm 48.055012 -50.863477 -73.109944
LeftForeArm 27.197059 -0.000000 98.568578
LeftHand -36.886548 -0.000000 31.355315
LeftHandThumb1 -26.253704 0.000000 33.147579
Head 27.259743 32.742741 32.560763
3551
root 4.938487 38.328013 4.078648 24.381672 -50.606411 -39.973600
RightUpLeg 8.387665 -38.821903 -23.341736
RightLeg 60.397146 -0.000000 -0.000000
RightFoot -4.352704 -34.787593 18.456631
RightToeBase -4.983618 -0.000000 0.000000
LeftUpLeg 10.030904 19.534103 17.759345
LeftLeg 3.715950 -0.000000 -0.000000
LeftFoot -23.030631 36.707759 -19.423644
LeftToeBase 4.735209 -0.000000 -0.000000
Spine 16.521583 -1.987954 -7.003904
RightShoulder -1.053040 -30.239197 -2.051015
RightArm 17.261381 -13.018562 69.274948
RightForeArm 3.737422 -0.000000 78.268077
RightHand -2.140455 0.000000 -17.778160
RightHandThumb1 -24.326973 -0.000000 -32.862282
LeftShoulder -16.353526 30.751107 12.789595
LeftArm 48.060745 -50.874445 -73.214927
LeftForeArm 27.235312 0.000000 98.779097
LeftHand -36.870908 -0.000000 31.202395
LeftHandThumb1 -26.253704 0.000000 33.147579
Head 27.192512 32.822397 32.558031
3552
root 4.955529 38.329774 4.058851 24.294079 -50.418249 -39.779524
RightUpLeg 8.396732 -38.817435 -23.220403
RightLeg 60.355717 -0.000000 -0.000000
RightFoot -4.355443 -34.763779 18.468880
RightToeBase -4.965258 -0.000000 0.000000
LeftUpLeg 9.738556 19.395174 17.685350
LeftLeg 3.920330 -0.000000 -0.000000
LeftFoot -23.126636 36.573874 -19.527653
LeftToeBase 4.822115 -0.000000 -0.000000
Spine 16.576758 -2.258062 -7.139109
RightShoulder -1.099982 -30.292960 -2.046060
RightArm 17.266815 -13.006804 69.369257
RightForeArm 3.687731 -0.000000 78.313505
RightHand -2.094294 0.000000 -17.843992
RightHandThumb1 -24.326973 -0.000000 -32.862282
LeftShoulder -16.414290 30.696153 12.787491
LeftArm 48.124190 -50.855997 -73.319183
LeftForeArm 27.249141 -0.000000 98.959357
LeftHand -36.740475 -0.000000 31.154939
LeftHandThumb1 -26.253704 0.000000 33.147579
Head 27.123191 32.926369 32.509305
